<?xml version="1.0" encoding="UTF-8"?>
<svg width="129px" height="80px" viewBox="0 0 129 80" version="1.1" xmlns="http://www.w3.org/2000/svg" xmlns:xlink="http://www.w3.org/1999/xlink">
    <!-- Generator: Sketch 50.2 (55047) - http://www.bohemiancoding.com/sketch -->
    <title>logo__pug</title>
    <desc>Created with Sketch.</desc>
    <defs></defs>
    <g id="Page-1" stroke="none" stroke-width="1" fill="none" fill-rule="evenodd">
        <g id="logo__pug" fill-rule="nonzero">
            <path d="M107.4,24.9 C107.2,20.5 107.8,16.6 105.8,13.3 C101,5.1 89,0.3 65,0.3 L65,1 C65,1 64.5,1 64.5,1 C64.5,1 65,1 65,1 L65,0.3 C41,0.3 28.4,5.1 23.6,13.4 C21.7,16.8 21.9,20.6 21.6,25 C21.4,28.5 19.8,32.2 20.5,36.2 C21.3,41.4 21.6,46.6 22.4,51.4 C23,55.3 28.4,58.6 28.9,62.3 C30.3,72.5 40.9,77.2 64.9,77.2 L64.9,78 L64.3,78 L64.4,78 L65,78 L65,77.2 C89,77.2 99.2,72.5 100.5,62.3 C101,58.5 106,55.3 106.6,51.4 C107.4,46.6 107.7,41.4 108.5,36.2 C109.2,32.2 107.6,28.4 107.4,24.9 Z" id="Shape" fill="#EFCCA3"></path>
            <path d="M64.6,28.5 C68.9,28.6 71.9,31.3 74.7,33.8 C78,36.7 83.6,38.7 85.9,41.2 C88.2,43.7 91.2,46.2 92.3,50.1 C93.4,54 93.7,59 93.7,60.3 C93.7,61.6 94.4,61.3 96.4,60.3 C101.1,58 106.3,51.8 106.3,51.8 C105.7,55.7 100.6,59.2 100.1,62.9 C98.9,73.1 89,78 64.5,78 L64.4,78 L65,78" id="Shape" fill="#CCAC8D"></path>
            <path d="M80.4,20.7 C81.3,23.8 84.5,34.3 78.3,30.8 C78.3,30.8 80.9,32.3 82.5,38 C84.2,43.7 88.3,44.4 88.3,44.4 C88.3,44.4 95,45.7 100,41.4 C104.2,37.8 104.9,31.4 103.1,26.5 C101.3,21.7 98.1,20.2 93.4,19.2 C88.7,18.1 79.3,17.2 80.4,20.7 Z" id="Shape" fill="#CCAC8D"></path>
            <g id="Group" transform="translate(83.000000, 23.000000)">
                <circle id="Oval" fill="#000000" cx="9.3" cy="9.1" r="8.8"></circle>
                <circle id="Oval" fill="#FFFFFF" cx="7" cy="5.2" r="2.3"></circle>
            </g>
            <path d="M78.9,31.7 C78.9,31.7 86.8,37.1 91.1,42.4 C95.4,47.7 95.3,48.7 95.3,48.7 L92.2,50.1 C92.2,50.1 87.8,41.8 82.4,38.7 C76.9,35.6 76.3,33 76.3,33 L78.9,31.7 Z" id="Shape" fill="#EFCCA3"></path>
            <path d="M64.9,28.5 C60.6,28.6 57.4,31.3 54.5,33.8 C51.2,36.7 45.4,38.7 43.1,41.2 C40.8,43.7 37.7,46.2 36.6,50.1 C35.5,54 35.1,59 35.1,60.3 C35.1,61.6 35.3,61.7 32.4,60.3 C27.7,58.1 22.5,51.8 22.5,51.8 C23.1,55.7 28.2,59.2 28.7,62.9 C30.1,73.1 40,78 64.5,78 L64.6,78 L65,78" id="Shape" fill="#CCAC8D"></path>
            <path d="M88.1,45.4 C83.3,39.5 75.6,34 64.9,34 L64.8,34 C54.1,34 46.4,39.5 41.6,45.4 C36.6,51.5 37,53.9 37,59.7 C37,80.7 44.4,74.7 49.3,77.3 C54.3,79.8 59.5,79 64.8,79 L64.9,79 C70.3,79 75.4,79.7 80.4,77.2 C85.3,74.7 92.7,80.9 92.7,59.9 C92.8,54.1 93.1,51.5 88.1,45.4 Z" id="Shape" fill="#56332B"></path>
            <path d="M64.4,39.2 C64.4,39.2 63.7,48.9 62.3,50.8 L64.9,50.2 L64.4,39.2 Z" id="Shape" fill="#442823"></path>
            <path d="M65.1,39.2 C65.1,39.2 65.8,48.9 67.2,50.8 L64.6,50.2 L65.1,39.2 Z" id="Shape" fill="#442823"></path>
            <path d="M56.7,36.9 C55.7,34.6 59.3,30.9 65,30.8 C70.7,30.8 74.3,34.5 73.3,36.9 C72.3,39.3 68.7,40 65,40.1 C61.4,40 57.7,39.3 56.7,36.9 Z" id="Shape" fill="#56332B"></path>
            <path d="M65,39.2 C65,38.8 68.4,38.7 70.2,37.5 C70.2,37.5 66.5,38.7 65.7,38.2 C64.9,37.8 64.7,36.6 64.7,36.6 C64.7,36.6 64.4,37.8 63.8,38.2 C63.1,38.6 58.9,37.5 58.9,37.5 C58.9,37.5 64.5,38.9 64.5,39.2 C64.5,39.5 64.4,40.5 64.4,41.2 C64.4,43.7 64.4,49.9 64.8,50.4 C65.4,51.3 65.2,43.7 65.2,41.2 C65.1,40.4 65.1,39.6 65,39.2 Z" id="Shape" fill="#000000"></path>
            <path d="M65.2,52.6 C66.9,52.6 69.9,53.8 72.6,55.7 C70,52.8 66.9,50.8 65.2,50.8 C63.4,50.8 59.6,53 56.9,56.2 C59.7,54 63.3,52.6 65.2,52.6 Z" id="Shape" fill="#7F4A41"></path>
            <path d="M64.5,70.3 C60.7,70.3 57,69.1 53.6,68.2 C52.9,68 52.2,68.5 51.5,68.3 C45.2,66.3 40.1,62.9 37,58.6 C37,58.9 37,59.3 37,59.6 C37,80.6 44.4,74.7 49.3,77.2 C54.3,79.7 59.5,78.9 64.8,78.9 L64.9,78.9 C70.3,78.9 75.4,79.6 80.4,77.1 C85.3,74.6 92.7,80.7 92.7,59.7 C92.7,58.9 92.7,58.1 92.8,57.4 C89.9,62.1 84.6,65.8 78,68 C77.4,68.2 76,67.7 75.4,67.8 C71.8,69 68.6,70.3 64.5,70.3 Z" id="Shape" fill="#442823"></path>
            <path d="M55,59 C55,59 52.5,66.5 54.2,69.8 L51.9,68.8 C51.9,68.8 53.6,61.2 55,59 Z" id="Shape" fill="#442823"></path>
            <path d="M74.8,59 C74.8,59 77.3,66.5 75.6,69.8 L77.9,68.8 C77.9,68.8 76.1,61.2 74.8,59 Z" id="Shape" fill="#442823"></path>
            <path d="M48.6,20.7 C47.7,23.8 44.5,34.3 50.7,30.8 C50.7,30.8 48.1,32.3 46.5,38 C44.9,43.7 40.7,44.4 40.7,44.4 C40.7,44.4 34,45.7 29,41.4 C24.8,37.8 24.1,31.4 25.9,26.5 C27.7,21.6 30.9,20.2 35.6,19.2 C40.3,18.1 49.6,17.2 48.6,20.7 Z" id="Shape" fill="#CCAC8D"></path>
            <path d="M64.9,50.8 C67.6,50.8 76,56.6 76.1,63.7 C76.1,63.6 76.1,63.5 76.1,63.3 C76.1,55.9 69.3,50 64.9,50 C60.5,50 53.7,56 53.7,63.3 C53.7,63.4 53.7,63.5 53.7,63.7 C53.8,56.6 62.2,50.8 64.9,50.8 Z" id="Shape" fill="#000000"></path>
            <g id="Group" transform="translate(61.000000, 33.000000)" fill="#331712">
                <ellipse id="Oval" transform="translate(5.708260, 2.501960) rotate(-14.460093) translate(-5.708260, -2.501960) " cx="5.70826" cy="2.50196" rx="1" ry="1.49996623"></ellipse>
                <ellipse id="Oval" transform="translate(1.387290, 2.506870) rotate(17.235421) translate(-1.387290, -2.506870) " cx="1.38729" cy="2.50687" rx="1" ry="1.50000727"></ellipse>
            </g>
            <g id="Group" transform="translate(28.000000, 23.000000)">
                <circle id="Oval" fill="#000000" cx="9.2" cy="9.1" r="8.8"></circle>
                <circle id="Oval" fill="#FFFFFF" cx="11.5" cy="5.2" r="2.3"></circle>
            </g>
            <path d="M67.5,32.2 C67.5,32.1 65.2,33.2 64.6,33.3 C64,33.2 61.7,32.1 61.7,32.2 C61.7,32.2 63.6,32.2 64.6,32.2 C65.6,32.2 67.5,32.2 67.5,32.2 Z" id="Shape" fill="#7F4A41"></path>
            <path d="M50,31.7 C50,31.7 42.1,37.1 37.8,42.4 C33.5,47.7 33.6,48.7 33.6,48.7 L36.7,50.1 C36.7,50.1 41.1,41.8 46.5,38.7 C51.9,35.6 52.6,33 52.6,33 L50,31.7 Z" id="Shape" fill="#EFCCA3"></path>
            <path d="M32.7,15.7 C32.7,15.7 30,23.1 24,26.2 C24,26.2 33.4,25.1 32.7,15.7 Z" id="Shape" fill="#CCAC8D"></path>
            <path d="M95.8,15.7 C95.8,15.7 98.5,23.1 104.5,26.2 C104.5,26.2 95.1,25.1 95.8,15.7 Z" id="Shape" fill="#CCAC8D"></path>
            <path d="M78.7,29.5 C78.7,29.5 72.8,23.3 64.9,23.1 C64.8,23.1 65.1,23.1 65,23.1 C64.9,23.1 65.1,23.1 65.1,23.1 C57.1,23.3 51.3,29.5 51.3,29.5 C58.2,24.7 64.1,24.8 65.1,24.8 C65.1,24.8 65.1,24.8 65.1,24.8 C65.1,24.8 65.1,24.8 65.1,24.8 C65,24.8 71.8,24.7 78.7,29.5 Z" id="Shape" fill="#CCAC8D"></path>
            <path d="M71.8,16.5 C71.8,16.5 68.8,12.3 64.8,12.2 C64.8,12.2 64.9,12.2 64.9,12.2 C64.9,12.2 65,12.2 65,12.2 C62,12.3 58.1,16.5 58.1,16.5 C61.5,13.2 65,13.3 65,13.3 C65,13.3 65,13.3 65,13.3 C65,13.3 65,13.3 65,13.3 C65,13.3 68.3,13.2 71.8,16.5 Z" id="Shape" fill="#CCAC8D"></path>
            <path d="M37.2,47.2 C37.2,47.2 32.5,49.5 29.1,48.1 C29.1,48.1 29,48.1 29,48.1 C29,48.1 29,48.1 29,48.1 C26,46.4 24.5,41.3 24.5,41.3 C24.5,41.3 27.5,50.3 37.2,47.2 Z" id="Shape" fill="#CCAC8D"></path>
            <path d="M92,47.2 C92,47.2 96.7,49.5 100.1,48.1 C100.1,48.1 100.1,48.1 100.1,48.1 C100.1,48.1 100.1,48.1 100.1,48.1 C104.1,46.4 104.7,41.3 104.7,41.3 C104.7,41.3 101.7,50.3 92,47.2 Z" id="Shape" fill="#CCAC8D"></path>
            <path d="M42.6,15.2 C45.2,14.7 49.5,14.6 52.9,15.7 C57.2,17.2 53.7,22.7 54.6,23 C55.5,23.3 56.7,19.2 64.7,19.6 C72.8,20 73.7,23.6 74.8,23 C75.9,22.4 73.7,13 85.8,15.2 C85.8,15.2 73.1,11.8 73.7,21 C73.7,21 66.4,15.4 56.2,20.4 C56.3,20.4 58.9,11.8 42.6,15.2 Z" id="Shape" fill="#CCAC8D"></path>
            <path d="M86.9,15.2 C87.1,15.2 87.2,15.3 87.3,15.3 C87.4,15.3 87.2,15.2 86.9,15.2 Z" id="Shape" fill="#CCAC8D"></path>
            <path d="M39.1,2.9 C39.1,2.9 28.3,16.5 26.7,21.7 C25.1,27 23.9,48.7 22.5,51.8 L17.5,30.4 L26.7,8.1 L39.1,2.9 Z" id="Shape" fill="#CCAC8D"></path>
            <path d="M89.9,2.9 C89.9,2.9 100.7,16.5 102.3,21.7 C103.9,27 105.1,48.7 106.5,51.8 L111.5,30.4 L102.3,8.1 L89.9,2.9 Z" id="Shape" fill="#CCAC8D"></path>
            <path d="M89.4,2.9 C89.4,2.9 101,12.6 104.4,23.8 C107.8,35 106.4,48.6 109,50.3 C112.7,52.7 116.9,38.4 118.3,36.9 C120.5,34.5 127.8,28.4 128.3,27.3 C128.8,26.2 113.5,9.5 106.8,6.2 C98.7,2.4 88.7,2.1 89.4,2.9 Z" id="Shape" fill="#56332B"></path>
            <path d="M99.3,8.9 C99.3,8.9 113,26.4 112.8,48.2 L118.3,37 C118.2,37 113.4,22.7 99.3,8.9 Z" id="Shape" fill="#442823"></path>
            <path d="M39.1,2.9 C39.1,2.9 27.5,12.6 24.1,23.8 C20.7,35 22.1,48.6 19.5,50.3 C15.8,52.7 11.6,38.4 10.2,36.9 C8,34.5 0.7,28.4 0.2,27.3 C-0.3,26.2 15,9.5 21.7,6.2 C29.8,2.4 39.8,2.1 39.1,2.9 Z" id="Shape" fill="#56332B"></path>
            <path d="M29.2,8.9 C29.2,8.9 15.5,26.4 15.7,48.2 L10.3,37 C10.3,37 15.1,22.7 29.2,8.9 Z" id="Shape" fill="#442823"></path>
            <path d="M21.8,48.6 C21.8,48.6 22.8,54 24.4,55.7 C26,57.4 24.9,54.4 24.9,54.4 C24.9,54.4 23.2,53.5 23.5,46.6 C23.8,39.7 21.8,48.6 21.8,48.6 Z" id="Shape" fill="#CCAC8D"></path>
            <path d="M107.1,48.6 C107.1,48.6 106.1,54 104.5,55.7 C102.9,57.4 104,54.4 104,54.4 C104,54.4 105.7,53.5 105.4,46.6 C105.1,39.7 107.1,48.6 107.1,48.6 Z" id="Shape" fill="#CCAC8D"></path>
            <g id="Group" transform="translate(47.000000, 43.000000)" fill="#442823">
                <circle id="Oval" cx="7.5" cy="1.5" r="1"></circle>
                <circle id="Oval" cx="2.9" cy="6.3" r="1"></circle>
                <circle id="Oval" cx="1.4" cy="1.5" r="1"></circle>
            </g>
            <g id="Group" transform="translate(73.000000, 43.000000)" fill="#442823">
                <circle id="Oval" cx="1" cy="1.5" r="1"></circle>
                <circle id="Oval" cx="5.6" cy="6.3" r="1"></circle>
                <circle id="Oval" cx="7.1" cy="1.5" r="1"></circle>
            </g>
        </g>
    </g>
</svg>